<svg width="18" height="18" viewBox="0 0 18 18" fill="none" xmlns="http://www.w3.org/2000/svg">
    <path d="M9 8C8.20435 8 7.44129 7.68393 6.87868 7.12132C6.31607 6.55871 6 5.79565 6 5C6 4.20435 6.31607 3.44129 6.87868 2.87868C7.44129 2.31607 8.20435 2 9 2C9.79565 2 10.5587 2.31607 11.1213 2.87868C11.6839 3.44129 12 4.20435 12 5C12 5.79565 11.6839 6.55871 11.1213 7.12132C10.5587 7.68393 9.79565 8 9 8Z" stroke="white" stroke-width="2" stroke-linecap="round" />
    <path d="M2 16V15.2857C2 14.1491 2.55312 13.059 3.53769 12.2553C4.52226 11.4515 5.85761 11 7.25 11H10.75C12.1424 11 13.4777 11.4515 14.4623 12.2553C15.4469 13.059 16 14.1491 16 15.2857V16" stroke="white" stroke-width="2" stroke-linecap="round" />
</svg>