<svg width="30" height="30" viewBox="0 0 30 30" fill="none" xmlns="http://www.w3.org/2000/svg">
    <path d="M17.85 12.6C19.8 12.6 21 9.75 21 7.95C21 6.45 20.25 4.65 18.75 4.65C16.8 4.65 15.6 7.5 15.6 9.3C15.6 10.8 16.35 12.6 17.85 12.6ZM12.15 12.6C13.65 12.6 14.4 10.8 14.4 9.3C14.4 7.35 13.2 4.5 11.25 4.5C9.74995 4.5 8.99995 6.3 8.99995 7.8C8.84995 9.75 10.05 12.6 12.15 12.6ZM23.25 11.1C21.3 11.1 19.95 13.8 19.95 15.75C19.95 17.1 20.55 18.45 21.9 18.45C23.85 18.45 25.2 15.75 25.2 13.8C25.2 12.45 24.45 11.1 23.25 11.1ZM10.2 15.75C10.2 13.8 8.69995 11.1 6.89995 11.1C5.54995 11.1 4.94995 12.45 4.94995 13.8C4.94995 15.75 6.44995 18.45 8.24995 18.45C9.59995 18.45 10.2 17.1 10.2 15.75ZM15 15.45C12 15.45 7.94995 20.25 7.94995 23.55C7.94995 25.05 8.99995 25.5 10.2 25.5C12 25.5 13.35 24.3 15 24.3C16.5 24.3 17.85 25.5 19.5 25.5C20.7 25.5 22.05 25.2 22.05 23.55C22.05 20.25 18 15.45 15 15.45Z" fill="white" />
</svg>