<svg width="64" height="64" viewBox="16 16 48 50" fill="none" xmlns="http://www.w3.org/2000/svg">
    <path d="M27.1049 20.4167C24.9517 20.9937 23.4073 22.7235 22.668 24.7181C21.9286 26.7127 21.8805 29.0459 22.5122 31.3875C23.1439 33.729 24.3601 35.7256 26.0033 37.0818C27.6466 38.438 29.8527 39.1607 32.0059 38.5838C34.1591 38.0068 35.7035 36.277 36.4428 34.2824C37.1822 32.2878 37.2303 29.9546 36.5986 27.613C35.9669 25.2715 34.7508 23.2749 33.1075 21.9187C31.4642 20.5625 29.2581 19.8398 27.1049 20.4167ZM36.5986 27.613C37.2303 29.9546 38.4465 31.9512 40.0898 33.3073C41.733 34.6635 43.9411 35.3857 46.0923 34.8093C48.2455 34.2324 49.7899 32.5025 50.5293 30.5079C51.2686 28.5133 51.3167 26.1801 50.685 23.8386C50.0534 21.4971 48.8372 19.5005 47.1939 18.1443C45.5506 16.7881 43.3446 16.0654 41.1914 16.6423C39.0381 17.2193 37.4937 18.9491 36.7544 20.9437C36.0151 22.9383 35.9669 25.2715 36.5986 27.613ZM28.194 24.4539C28.8219 24.2856 29.5991 24.415 30.4695 25.1299C31.3313 25.8448 32.153 27.1311 32.5739 28.6914C32.9949 30.2518 32.9317 31.7773 32.5453 32.8246C32.1519 33.878 31.5446 34.3784 30.9168 34.5466C30.2889 34.7149 29.5117 34.5855 28.6413 33.8707C27.7796 33.1557 26.9578 31.8694 26.5369 30.3091C26.116 28.7487 26.1791 27.2232 26.5655 26.1759C26.9589 25.1225 27.5662 24.6221 28.194 24.4539ZM42.2805 20.6794C42.9083 20.5112 43.6855 20.6406 44.5559 21.3554C45.4177 22.0704 46.2394 23.3567 46.6603 24.917C47.0813 26.4773 47.0181 28.0029 46.6317 29.0501C46.2383 30.1036 45.6311 30.604 45.0032 30.7722C44.3753 30.9404 43.5982 30.811 42.7278 30.0962C41.866 29.3813 41.0442 28.095 40.6233 26.5346C40.2024 24.9743 40.2655 23.4487 40.6519 22.4015C41.0453 21.348 41.6526 20.8476 42.2805 20.6794ZM20.8551 37.2427C18.7018 37.8196 17.1574 39.5494 16.4181 41.5441C15.6788 43.5387 15.6306 45.8719 16.2623 48.2134C16.894 50.5549 18.1102 52.5515 19.7535 53.9077C21.3968 55.2639 23.6028 55.9866 25.756 55.4097C27.9092 54.8327 29.4536 53.1029 30.193 51.1083C30.9323 49.1137 30.9804 46.7805 30.3487 44.439C29.7171 42.0974 28.5009 40.1008 26.8576 38.7446C25.2143 37.3884 23.0083 36.6657 20.8551 37.2427ZM55.0649 28.0762C52.9117 28.6531 51.3673 30.3829 50.628 32.3776C49.8886 34.3722 49.8405 36.7054 50.4722 39.0469C51.1039 41.3884 52.3201 43.385 53.9633 44.7412C55.6066 46.0974 57.8127 46.8201 59.9659 46.2432C62.1191 45.6662 63.6635 43.9364 64.4028 41.9418C65.1422 39.9472 65.1903 37.614 64.5586 35.2725C63.9269 32.9309 62.7108 30.9343 61.0675 29.5781C59.4242 28.2219 57.2181 27.4992 55.0649 28.0762ZM21.9442 41.2798C22.572 41.1116 23.3492 41.241 24.2196 41.9558C25.0814 42.6707 25.9031 43.957 26.3241 45.5174C26.745 47.0777 26.6818 48.6033 26.2954 49.6505C25.9021 50.704 25.2948 51.2043 24.6669 51.3726C24.0391 51.5408 23.2619 51.4114 22.3915 50.6966C21.5302 49.9836 20.708 48.6953 20.287 47.135C19.8661 45.5746 19.9292 44.0491 20.3156 43.0018C20.709 41.9484 21.3163 41.448 21.9442 41.2798ZM56.154 32.1133C56.7819 31.945 57.5591 32.0745 58.4295 32.7893C59.2913 33.5042 60.113 34.7905 60.5339 36.3509C60.9549 37.9112 60.8917 39.4368 60.5053 40.484C60.1119 41.5375 59.5046 42.0378 58.8768 42.2061C58.2489 42.3743 57.4717 42.2449 56.6013 41.5301C55.7395 40.8151 54.9178 39.5288 54.4969 37.9685C54.0759 36.4081 54.1391 34.8826 54.5255 33.8353C54.9189 32.7819 55.5262 32.2815 56.154 32.1133ZM40.1382 40.7336C37.4557 41.4524 36.0553 43.6999 35.5495 45.4804C35.0498 47.2593 34.8305 48.6861 34.4389 49.3624C34.2165 49.7618 32.4723 51.0149 30.7272 52.5928C29.855 53.3828 29.0215 54.3486 28.4481 55.6385C27.8687 56.9301 27.6799 58.55 28.1226 60.1911C29.1682 64.0667 33.2081 66.4041 37.0718 65.3688C38.8145 64.9018 40.4811 63.8492 42.1259 62.8674C43.7755 61.8712 45.5837 60.9192 45.5837 60.9192C45.5837 60.9192 47.6271 60.8392 49.5504 60.8736C51.4695 60.9005 53.4411 60.9783 55.1838 60.5113C59.0475 59.4761 61.3666 55.4348 60.3211 51.5592C59.8887 49.9564 58.9038 48.649 57.7668 47.8497C56.6322 47.0434 55.4292 46.6796 54.2807 46.4137C51.9798 45.8831 49.7729 45.5653 49.4088 45.3512C48.7968 45.0022 47.8978 43.8297 46.5561 42.5356C45.2148 41.2348 42.8347 40.0111 40.1382 40.7336ZM41.2273 44.7708C42.5554 44.4149 42.7895 44.6985 43.6572 45.5396C44.5305 46.377 45.4392 47.9538 47.2961 49.0298C49.4028 50.2402 51.5977 50.0417 53.345 50.4479C54.2197 50.6508 54.9204 50.9284 55.3838 51.2544C55.8447 51.579 56.1025 51.919 56.2953 52.6335C56.7527 54.3291 55.784 56.0173 54.0936 56.4702C53.51 56.6266 51.5107 56.6861 49.6238 56.6506C47.7386 56.6211 46.1356 56.4381 44.4935 56.8781C42.8514 57.3181 41.5566 58.2775 39.9404 59.2452C38.3258 60.219 36.5661 61.1667 35.9825 61.323C34.2921 61.776 32.6046 60.7996 32.1472 59.104C31.9277 58.2905 31.984 57.8274 32.207 57.3261C32.4305 56.8268 32.9368 56.2561 33.5825 55.674C34.8727 54.5058 36.8758 53.6444 38.1161 51.4831C39.1898 49.6002 39.1599 47.7294 39.4907 46.5802C39.8115 45.4337 39.8789 45.1234 41.2231 44.7632L41.2273 44.7708Z" fill="#F22239" />
</svg>