<svg width="35" height="35" viewBox="0 0 35 35" fill="none" xmlns="http://www.w3.org/2000/svg">
    <path d="M5.14551 13.368C5.20244 12.6413 5.52445 11.9632 6.04741 11.4687C6.57037 10.9743 7.25591 10.6998 7.9675 10.7H25.0325C25.7441 10.6998 26.4296 10.9743 26.9526 11.4687C27.4756 11.9632 27.7976 12.6413 27.8545 13.368L28.9909 27.868C29.0222 28.267 28.9725 28.6684 28.8449 29.0467C28.7174 29.4251 28.5147 29.7724 28.2498 30.0666C27.9848 30.3608 27.6633 30.5956 27.3054 30.7562C26.9475 30.9169 26.5611 30.9999 26.1704 31H6.82965C6.43893 30.9999 6.05247 30.9169 5.6946 30.7562C5.33672 30.5956 5.01518 30.3608 4.75023 30.0666C4.48527 29.7724 4.28264 29.4251 4.15508 29.0467C4.02753 28.6684 3.97781 28.267 4.00907 27.868L5.14551 13.368V13.368Z" stroke="#F26122" stroke-width="3" stroke-linecap="round" stroke-linejoin="round" />
    <path d="M22.161 15.05V7.8C22.161 6.26175 21.5646 4.78649 20.503 3.69878C19.4414 2.61107 18.0015 2 16.5001 2C14.9987 2 13.5588 2.61107 12.4972 3.69878C11.4355 4.78649 10.8391 6.26175 10.8391 7.8V15.05" stroke="#F26122" stroke-width="3" stroke-linecap="round" stroke-linejoin="round" />
</svg>